<?xml version="1.0" encoding="UTF-8"?>
<!DOCTYPE svg PUBLIC "-//W3C//DTD SVG 1.1//EN" "http://www.w3.org/Graphics/SVG/1.1/DTD/svg11.dtd">
<svg xmlns="http://www.w3.org/2000/svg" version="1.1" width="195px" height="194px" style="shape-rendering:geometricPrecision; text-rendering:geometricPrecision; image-rendering:optimizeQuality; fill-rule:evenodd; clip-rule:evenodd" xmlns:xlink="http://www.w3.org/1999/xlink">
<g><path style="opacity:1" fill="#fee4e3" d="M 110.5,31.5 C 121.842,30.0026 126.342,34.6693 124,45.5C 120.265,49.0961 115.765,50.4294 110.5,49.5C 110.5,43.5 110.5,37.5 110.5,31.5 Z M 113.5,33.5 C 118.992,32.7366 121.992,35.0699 122.5,40.5C 121.992,45.9301 118.992,48.2634 113.5,47.5C 113.5,42.8333 113.5,38.1667 113.5,33.5 Z"/></g>
<g><path style="opacity:1" fill="#fee6e6" d="M 74.5,31.5 C 76.5273,31.3379 78.5273,31.5045 80.5,32C 80.9574,32.414 81.2907,32.914 81.5,33.5C 79.6565,33.7552 77.6565,33.9219 75.5,34C 74.1667,35.3333 74.1667,36.6667 75.5,38C 77.7463,39.0395 79.913,40.2062 82,41.5C 82.8671,48.5248 79.7004,51.0248 72.5,49C 72.0426,48.586 71.7093,48.086 71.5,47.5C 73.6716,47.3241 76.0049,47.1575 78.5,47C 79.0585,46.2753 79.3918,45.4419 79.5,44.5C 76.9047,42.2827 74.4047,39.9494 72,37.5C 71.4585,34.9175 72.2918,32.9175 74.5,31.5 Z"/></g>
<g><path style="opacity:1" fill="#ffe0d9" d="M 85.5,36.5 C 86.7498,36.5774 87.5831,37.244 88,38.5C 91.3388,35.7006 94.3388,36.0339 97,39.5C 98.5752,46.7973 95.9085,49.7973 89,48.5C 88.5045,50.4727 88.3379,52.4727 88.5,54.5C 87.5,54.5 86.5,54.5 85.5,54.5C 85.5,48.5 85.5,42.5 85.5,36.5 Z M 90.5,38.5 C 93.488,38.1547 94.8213,39.488 94.5,42.5C 92.7817,48.8766 90.7817,49.0433 88.5,43C 88.7586,41.2134 89.4253,39.7134 90.5,38.5 Z"/></g>
<g><path style="opacity:1" fill="#ffe1d9" d="M 100.5,36.5 C 103.149,36.8521 105.815,37.1854 108.5,37.5C 107.009,38.2436 105.509,38.9103 104,39.5C 103.502,42.8168 103.335,46.1501 103.5,49.5C 102.5,49.5 101.5,49.5 100.5,49.5C 100.5,45.1667 100.5,40.8333 100.5,36.5 Z"/></g>
<g><path style="opacity:1" fill="#fee6e5" d="M 142.5,68.5 C 143.376,68.3691 144.043,68.7025 144.5,69.5C 142.675,72.7784 143.342,75.1117 146.5,76.5C 148.749,74.8626 150.415,72.6959 151.5,70C 158.089,67.919 160.589,70.419 159,77.5C 158.107,78.7112 157.274,78.7112 156.5,77.5C 158.527,73.0439 157.36,71.3772 153,72.5C 151.961,74.7463 150.794,76.913 149.5,79C 143.979,80.8123 141.312,78.8123 141.5,73C 141.605,71.4085 141.939,69.9085 142.5,68.5 Z"/></g>
<g><path style="opacity:1" fill="#fee3e3" d="M 38.5,71.5 C 47.7131,72.2187 51.3797,77.2187 49.5,86.5C 43.5,86.5 37.5,86.5 31.5,86.5C 29.8824,79.4098 32.2157,74.4098 38.5,71.5 Z M 38.5,74.5 C 45.1852,73.8518 48.1852,76.8518 47.5,83.5C 42.8333,83.5 38.1667,83.5 33.5,83.5C 32.8948,79.0276 34.5615,76.0276 38.5,74.5 Z"/></g>
<g><path style="opacity:1" fill="#ffe0da" d="M 136.5,82.5 C 142.537,82.1707 148.537,82.5041 154.5,83.5C 153.975,84.1924 153.308,84.6924 152.5,85C 155.902,90.1561 154.568,93.3228 148.5,94.5C 142.64,94.165 140.64,91.3317 142.5,86C 140.527,85.5045 138.527,85.3379 136.5,85.5C 136.5,84.5 136.5,83.5 136.5,82.5 Z M 144.5,85.5 C 146.924,85.1924 149.257,85.5258 151.5,86.5C 152.428,87.7678 152.595,89.1011 152,90.5C 148.543,92.2323 145.709,91.5657 143.5,88.5C 144.127,87.5832 144.461,86.5832 144.5,85.5 Z"/></g>
<g><path style="opacity:1" fill="#ffe1d8" d="M 36.5,88.5 C 38.0853,89.4737 39.0853,90.9737 39.5,93C 42.8168,93.4983 46.1501,93.665 49.5,93.5C 49.5,94.5 49.5,95.5 49.5,96.5C 45.1161,96.8256 40.7828,96.4922 36.5,95.5C 37.0525,93.2727 37.0525,90.9393 36.5,88.5 Z"/></g>
<g><path style="opacity:1" fill="#ffe0d8" d="M 141.5,97.5 C 145.884,97.1744 150.217,97.5078 154.5,98.5C 154.314,100.815 153.98,103.149 153.5,105.5C 152.756,104.009 152.09,102.509 151.5,101C 148.183,100.502 144.85,100.335 141.5,100.5C 141.5,99.5 141.5,98.5 141.5,97.5 Z"/></g>
<g><path style="opacity:1" fill="#ffe1da" d="M 39.5,99.5 C 44.5729,98.5299 47.9062,100.363 49.5,105C 49.4148,106.107 49.0814,107.107 48.5,108C 50.4727,108.495 52.4727,108.662 54.5,108.5C 54.5,109.5 54.5,110.5 54.5,111.5C 48.4632,111.829 42.4632,111.496 36.5,110.5C 38.7476,109.676 38.9142,108.676 37,107.5C 36.0228,104.183 36.8562,101.516 39.5,99.5 Z M 39.5,102.5 C 42.9079,101.828 45.5745,102.828 47.5,105.5C 47.1667,106.167 46.8333,106.833 46.5,107.5C 44.1667,108.833 41.8333,108.833 39.5,107.5C 38.1854,105.801 38.1854,104.135 39.5,102.5 Z"/></g>
<g><path style="opacity:1" fill="#fee3e2" d="M 141.5,107.5 C 147.5,107.5 153.5,107.5 159.5,107.5C 160.997,118.842 156.331,123.342 145.5,121C 141.904,117.265 140.571,112.765 141.5,107.5 Z M 143.5,110.5 C 148.167,110.5 152.833,110.5 157.5,110.5C 158.263,115.992 155.93,118.992 150.5,119.5C 145.07,118.992 142.737,115.992 143.5,110.5 Z"/></g>
<g><path style="opacity:1" fill="#fee5e6" d="M 41.5,114.5 C 48.5088,114.129 51.0088,117.462 49,124.5C 48.1072,125.711 47.2739,125.711 46.5,124.5C 48.3248,121.222 47.6581,118.888 44.5,117.5C 42.2513,119.137 40.5846,121.304 39.5,124C 32.911,126.081 30.411,123.581 32,116.5C 32.8928,115.289 33.7261,115.289 34.5,116.5C 32.473,120.956 33.6396,122.623 38,121.5C 39.1799,119.14 40.3466,116.807 41.5,114.5 Z"/></g>
<g><path style="opacity:1" fill="#fee4e3" d="M 79.5,140.5 C 82.5,140.5 85.5,140.5 88.5,140.5C 88.5,146.5 88.5,152.5 88.5,158.5C 77.1582,159.997 72.6582,155.331 75,144.5C 76.3968,142.93 77.8968,141.596 79.5,140.5 Z M 80.5,142.5 C 82.1667,142.5 83.8333,142.5 85.5,142.5C 85.5,147.167 85.5,151.833 85.5,156.5C 77.4322,156.202 74.9322,152.202 78,144.5C 78.9947,143.934 79.828,143.267 80.5,142.5 Z"/></g>
<g><path style="opacity:1" fill="#ffe0d8" d="M 95.5,140.5 C 96.5,140.5 97.5,140.5 98.5,140.5C 98.8256,144.884 98.4922,149.217 97.5,153.5C 95.1848,153.314 92.8515,152.98 90.5,152.5C 91.9905,151.756 93.4905,151.09 95,150.5C 95.4983,147.183 95.665,143.85 95.5,140.5 Z"/></g>
<g><path style="opacity:1" fill="#ffe0d9" d="M 110.5,135.5 C 111.5,135.5 112.5,135.5 113.5,135.5C 113.829,141.537 113.496,147.537 112.5,153.5C 111.808,152.975 111.308,152.308 111,151.5C 105.844,154.902 102.677,153.568 101.5,147.5C 101.835,141.64 104.668,139.64 110,141.5C 110.495,139.527 110.662,137.527 110.5,135.5 Z M 106.5,142.5 C 109.272,142.627 110.605,144.127 110.5,147C 110.246,150.871 108.413,152.037 105,150.5C 104.109,147.502 104.609,144.836 106.5,142.5 Z"/></g>
<g><path style="opacity:1" fill="#fee5e5" d="M 119.5,140.5 C 121.857,140.337 124.19,140.503 126.5,141C 126.957,141.414 127.291,141.914 127.5,142.5C 125.328,142.676 122.995,142.843 120.5,143C 119.941,143.725 119.608,144.558 119.5,145.5C 122.095,147.717 124.595,150.051 127,152.5C 127.677,154.982 126.844,156.815 124.5,158C 122.5,158.667 120.5,158.667 118.5,158C 118.043,157.586 117.709,157.086 117.5,156.5C 119.343,156.245 121.343,156.078 123.5,156C 124.833,154.667 124.833,153.333 123.5,152C 121.254,150.961 119.087,149.794 117,148.5C 115.837,145.029 116.67,142.362 119.5,140.5 Z"/></g>
</svg>
