<?xml version="1.0" encoding="utf-8"?>
<!-- Generator: Adobe Illustrator 24.1.1, SVG Export Plug-In . SVG Version: 6.00 Build 0)  -->
<svg version="1.1" id="Layer_1" xmlns="http://www.w3.org/2000/svg" xmlns:xlink="http://www.w3.org/1999/xlink" x="0px" y="0px"
	 viewBox="0 0 512 512" style="enable-background:new 0 0 512 512;" xml:space="preserve">
<g>
	<path d="M256,0L0,135.7v21.8h512v-21.8L256,0z M39.4,196.9v196.9L0,455.1V512h512v-56.9l-39.4-61.2V196.9H39.4z M142.4,236.3
		c6.7-0.1,13.1,2.5,17.8,7.2l95.8,95.8l95.8-95.8c9.6-9.6,25.2-9.6,34.8,0.1c4.6,4.6,7.2,10.8,7.2,17.3V428
		c0.2,13.6-10.7,24.8-24.3,25c-13.6,0.2-24.8-10.7-25-24.3V428V320.3l-71.2,71.2c-9.6,9.6-25.2,9.6-34.8,0l-71.2-71.2V428
		c0.2,13.6-10.7,24.8-24.3,25c-13.6,0.2-24.8-10.7-25-24.3V428V260.9C118.2,247.5,128.9,236.5,142.4,236.3z"/>
</g>
</svg>
